Patient4_TMGait_0pt8_01_left_17_GRF.mot
version=1
nRows=39
nColumns=19
inDegrees=no
endheader
time	F1x	F1y	F1z	M1x	M1y	M1z	F2x	F2y	F2z	M2x	M2y	M2z	EC1x	EC1y	EC1z	EC2x	EC2y	EC2z
18.25	-5.0914	1.756	7.4452	-1.8907	-5.8243	-3.8063	-42.412	696.0895	-76.2747	282.6201	97.8037	840.9199	-0.0592	0.0182	-0.0073	-0.0462	0.0165	0.9585
18.2616	-3.6908	1.957	4.9873	-1.501	-3.9948	-1.4267	-39.9602	680.6159	-70.3471	274.6816	92.1998	817.1417	-0.0592	0.0182	-0.0073	-0.0462	0.0165	0.9585
18.2731	-2.4592	2.1067	2.9326	-1.1722	-2.4772	0.52709	-36.8513	665.3797	-64.6703	267.1542	86.2535	793.1473	-0.0592	0.0182	-0.0073	-0.0462	0.0165	0.9585
18.2847	-1.4882	2.2074	1.3785	-0.92794	-1.3388	1.9634	-33.1688	652.4194	-59.5761	261.0152	80.2723	771.4748	-0.0592	0.0182	-0.0073	-0.0462	0.0165	0.9585
18.2963	-0.79116	2.2735	0.32596	-0.76937	-0.5795	2.9208	-29.0048	643.5868	-55.1837	257.0683	74.4481	754.3188	-0.0592	0.0182	-0.0073	-0.0462	0.0165	0.9585
18.3079	-0.34794	2.3013	-0.31422	-0.68154	-0.13104	3.4779	-24.3985	640.2603	-51.5296	255.8588	68.9155	743.2165	-0.0592	0.0182	-0.0073	-0.0462	0.0165	0.9585
18.3194	-0.123	2.2878	-0.61726	-0.64274	0.055317	3.7262	-19.3834	643.2244	-48.598	257.6487	63.7602	738.9729	-0.0592	0.0182	-0.0073	-0.0462	0.0165	0.9585
18.331	-0.072397	2.2277	-0.70001	-0.63017	0.068384	3.7397	-13.9558	652.6559	-46.3685	262.4283	59.0385	741.678	-0.0592	0.0182	-0.0073	-0.0462	0.0165	0.9585
18.3426	-0.16192	2.1004	-0.63165	-0.61573	-0.046884	3.5518	-8.1072	668.1545	-44.8237	269.9373	54.7827	750.7854	-0.0592	0.0182	-0.0073	-0.0462	0.0165	0.9585
18.3541	-0.35775	1.8704	-0.49112	-0.57066	-0.22942	3.1646	-1.8297	688.698	-43.9715	279.658	51.0286	765.0782	-0.0592	0.0182	-0.0073	-0.0462	0.0165	0.9585
18.3657	-0.62495	1.4744	-0.31868	-0.45963	-0.45185	2.5388	4.836	712.6842	-43.8482	290.8376	47.8394	782.7721	-0.0592	0.0182	-0.0073	-0.0462	0.0165	0.9585
18.3773	-0.93656	0.84096	-0.14227	-0.25084	-0.6932	1.6059	11.797	738.0865	-44.4828	302.5563	45.2809	801.7117	-0.0592	0.0182	-0.0073	-0.0462	0.0165	0.9585
18.3889	-1.2428	-0.10258	0.016783	0.082352	-0.92558	0.28181	18.8689	762.6724	-45.852	313.8188	43.3922	819.6107	-0.0592	0.0182	-0.0073	-0.0462	0.0165	0.9585
18.4004	-1.4802	-1.4019	0.15947	0.55291	-1.1291	-1.4939	25.7789	784.2153	-47.8633	323.6456	42.1749	834.2735	-0.0592	0.0182	-0.0073	-0.0462	0.0165	0.9585
18.412	-1.5529	-3.0437	0.25238	1.1491	-1.2306	-3.7102	32.1572	800.7041	-50.3533	331.1601	41.6011	843.8167	-0.0592	0.0182	-0.0073	-0.0462	0.0165	0.9585
18.4236	-1.3216	-4.8914	0.27833	1.8175	-1.1474	-6.1943	37.5991	810.5621	-53.1225	335.6831	41.6308	846.8559	-0.0592	0.0182	-0.0073	-0.0462	0.0165	0.9585
18.4351	-0.60801	-6.6344	0.16521	2.441	-0.72592	-8.5525	41.759	812.8899	-55.9668	336.8313	42.211	842.7087	-0.0592	0.0182	-0.0073	-0.0462	0.0165	0.9585
18.4467	0.78649	-7.714	-0.1363	2.815	0.18353	-10.0511	44.3849	807.6757	-58.6835	334.6048	43.257	831.5885	-0.0592	0.0182	-0.0073	-0.0462	0.0165	0.9585
18.4583	3.0762	-7.2457	-0.72088	2.6193	1.7826	-9.5216	45.3992	795.8691	-61.1145	329.413	44.6625	814.6333	-0.0592	0.0182	-0.0073	-0.0462	0.0165	0.9585
18.4699	6.4082	-3.9637	-1.6508	1.403	4.2199	-5.2995	44.9265	779.2623	-63.124	322.0264	46.2636	793.7482	-0.0592	0.0182	-0.0073	-0.0462	0.0165	0.9585
18.4814	10.8081	3.751	-3.0012	-1.4121	7.5983	4.7345	43.3158	760.1721	-64.6315	313.4414	47.8578	771.2441	-0.0592	0.0182	-0.0073	-0.0462	0.0165	0.9585
18.493	16.026	17.7373	-4.7654	-6.4774	11.8195	22.9954	41.1195	740.9939	-65.5923	304.6947	49.189	749.401	-0.0592	0.0182	-0.0073	-0.0462	0.0165	0.9585
18.5046	21.3906	39.7285	-6.8498	-14.4024	16.5069	51.7768	39.0167	723.711	-65.9834	296.6535	49.9652	729.9996	-0.0592	0.0182	-0.0073	-0.0462	0.0165	0.9585
18.5161	25.6012	70.8356	-8.9814	-25.5619	20.8248	92.5845	37.6662	709.4217	-65.7769	289.8183	49.8892	713.891	-0.0592	0.0182	-0.0073	-0.0462	0.0165	0.9585
18.5277	26.665	110.8629	-10.6511	-39.8613	23.4038	145.2581	37.5814	698.0137	-64.9362	284.1919	48.7105	700.728	-0.0592	0.0182	-0.0073	-0.0462	0.0165	0.9585
18.5393	22.6975	158.2767	-11.2975	-56.7196	22.846	207.9058	38.9981	688.1368	-63.395	279.2614	46.2634	688.9988	-0.0592	0.0182	-0.0073	-0.0462	0.0165	0.9585
18.5509	13.3541	210.3859	-10.3298	-75.134	18.2429	277.0524	41.8155	677.4106	-61.0931	274.0865	42.5321	676.2564	-0.0592	0.0182	-0.0073	-0.0462	0.0165	0.9585
18.5624	0.30121	263.0608	-7.1198	-93.5892	9.3629	347.1255	45.6109	662.8997	-57.9978	267.4927	37.6648	659.6076	-0.0592	0.0182	-0.0073	-0.0462	0.0165	0.9585
18.574	-14.061	311.1404	-1.3502	-110.2841	-3.2324	410.9459	49.739	641.6396	-54.1052	258.2987	31.9344	636.2059	-0.0592	0.0182	-0.0073	-0.0462	0.0165	0.9585
18.5856	-27.8509	352.268	6.0041	-124.4427	-17.5908	465.0113	53.4321	611.3534	-49.4482	245.5929	25.7009	603.9656	-0.0592	0.0182	-0.0073	-0.0462	0.0165	0.9585
18.5971	-40.0279	387.4637	13.6646	-136.51	-31.7171	510.4062	55.8923	570.8899	-44.1296	228.915	19.4018	561.9267	-0.0592	0.0182	-0.0073	-0.0462	0.0165	0.9585
18.6087	-50.1467	419.7335	20.7553	-147.6014	-44.301	550.9975	56.4434	520.3981	-38.4051	208.3174	13.5628	510.4022	-0.0592	0.0182	-0.0073	-0.0462	0.0165	0.9585
18.6203	-57.9169	451.8503	26.4303	-158.7512	-54.2236	590.3538	54.5969	461.2771	-32.5547	184.3549	8.6484	450.9001	-0.0592	0.0182	-0.0073	-0.0462	0.0165	0.9585
18.6319	-63.3109	485.5047	30.6157	-170.5467	-61.3388	630.6693	50.1562	396.0487	-26.9009	158.0322	5.0374	385.9716	-0.0592	0.0182	-0.0073	-0.0462	0.0165	0.9585
18.6434	-66.3145	521.1127	33.4442	-183.101	-65.8659	672.4279	43.3251	328.1252	-21.6784	130.7112	2.8581	318.9727	-0.0592	0.0182	-0.0073	-0.0462	0.0165	0.9585
18.655	-67.2194	558.2657	35.5986	-196.1855	-68.746	715.2338	34.7967	261.3716	-17.0818	103.9311	2.0004	253.5963	-0.0592	0.0182	-0.0073	-0.0462	0.0165	0.9585
18.6666	-66.3852	596.0418	37.6805	-209.3907	-70.8848	758.002	25.614	199.483	-13.1801	79.158	2.0903	193.3018	-0.0592	0.0182	-0.0073	-0.0462	0.0165	0.9585
18.6781	-64.308	633.2122	40.1947	-222.2075	-73.0845	799.4301	16.9229	145.2319	-9.9474	57.4916	2.6216	140.6264	-0.0592	0.0182	-0.0073	-0.0462	0.0165	0.9585
18.6897	-61.3815	668.3934	43.4	-234.109	-75.8007	837.9187	9.5894	100.1311	-7.3274	39.5224	3.1736	96.9202	-0.0592	0.0182	-0.0073	-0.0462	0.0165	0.9585
